<svg xmlns="http://www.w3.org/2000/svg" viewBox="0 0 720 260" width="720" height="260" font-family="-apple-system,Segoe UI,Helvetica,Arial,sans-serif" font-size="11" fill="#57606a">
<path d="M52.0,214.0 52.0,214.0 L52.5,214.0 L52.9,214.0 L53.4,214.0 L53.9,214.0 L54.3,214.0 L54.8,214.0 L55.2,214.0 L55.7,214.0 L56.2,214.0 L56.6,214.0 L57.1,214.0 L57.6,214.0 L58.0,214.0 L58.5,214.0 L59.0,214.0 L59.4,214.0 L59.9,214.0 L60.4,214.0 L60.8,214.0 L61.3,214.0 L61.8,214.0 L62.2,214.0 L62.7,214.0 L63.1,214.0 L63.6,214.0 L64.1,214.0 L64.5,214.0 L65.0,214.0 L65.5,214.0 L65.9,214.0 L66.4,214.0 L66.9,214.0 L67.3,214.0 L67.8,214.0 L68.2,214.0 L68.7,214.0 L69.2,214.0 L69.6,214.0 L70.1,214.0 L70.6,214.0 L71.0,214.0 L71.5,214.0 L72.0,214.0 L72.4,214.0 L72.9,214.0 L73.4,214.0 L73.8,214.0 L74.3,214.0 L74.8,214.0 L75.2,214.0 L75.7,214.0 L76.1,214.0 L76.6,214.0 L77.1,214.0 L77.5,214.0 L78.0,214.0 L78.5,214.0 L78.9,214.0 L79.4,214.0 L79.9,214.0 L80.3,214.0 L80.8,214.0 L81.2,214.0 L81.7,214.0 L82.2,214.0 L82.6,214.0 L83.1,214.0 L83.6,214.0 L84.0,214.0 L84.5,214.0 L85.0,214.0 L85.4,214.0 L85.9,214.0 L86.4,214.0 L86.8,214.0 L87.3,214.0 L87.8,214.0 L88.2,214.0 L88.7,214.0 L89.1,214.0 L89.6,214.0 L90.1,214.0 L90.5,214.0 L91.0,214.0 L91.5,214.0 L91.9,214.0 L92.4,214.0 L92.9,214.0 L93.3,214.0 L93.8,214.0 L94.2,214.0 L94.7,214.0 L95.2,214.0 L95.6,214.0 L96.1,214.0 L96.6,214.0 L97.0,214.0 L97.5,214.0 L98.0,214.0 L98.4,214.0 L98.9,214.0 L99.4,214.0 L99.8,214.0 L100.3,214.0 L100.8,214.0 L101.2,214.0 L101.7,214.0 L102.1,214.0 L102.6,214.0 L103.1,214.0 L103.5,214.0 L104.0,214.0 L104.5,214.0 L104.9,214.0 L105.4,214.0 L105.9,214.0 L106.3,214.0 L106.8,214.0 L107.2,214.0 L107.7,214.0 L108.2,214.0 L108.6,214.0 L109.1,214.0 L109.6,214.0 L110.0,214.0 L110.5,214.0 L111.0,214.0 L111.4,214.0 L111.9,214.0 L112.4,214.0 L112.8,214.0 L113.3,214.0 L113.8,214.0 L114.2,214.0 L114.7,214.0 L115.1,214.0 L115.6,214.0 L116.1,214.0 L116.5,214.0 L117.0,214.0 L117.5,214.0 L117.9,214.0 L118.4,214.0 L118.9,214.0 L119.3,214.0 L119.8,214.0 L120.2,214.0 L120.7,214.0 L121.2,214.0 L121.6,214.0 L122.1,214.0 L122.6,214.0 L123.0,214.0 L123.5,214.0 L124.0,214.0 L124.4,214.0 L124.9,214.0 L125.4,214.0 L125.8,214.0 L126.3,214.0 L126.7,214.0 L127.2,214.0 L127.7,214.0 L128.1,214.0 L128.6,214.0 L129.1,214.0 L129.5,214.0 L130.0,214.0 L130.5,214.0 L130.9,214.0 L131.4,214.0 L131.9,214.0 L132.3,214.0 L132.8,214.0 L133.2,214.0 L133.7,214.0 L134.2,214.0 L134.6,214.0 L135.1,214.0 L135.6,214.0 L136.0,214.0 L136.5,214.0 L137.0,214.0 L137.4,214.0 L137.9,214.0 L138.4,214.0 L138.8,214.0 L139.3,214.0 L139.8,214.0 L140.2,214.0 L140.7,214.0 L141.1,214.0 L141.6,214.0 L142.1,214.0 L142.5,214.0 L143.0,214.0 L143.5,214.0 L143.9,214.0 L144.4,214.0 L144.9,214.0 L145.3,214.0 L145.8,214.0 L146.2,214.0 L146.7,214.0 L147.2,214.0 L147.6,214.0 L148.1,214.0 L148.6,214.0 L149.0,214.0 L149.5,214.0 L150.0,214.0 L150.4,214.0 L150.9,214.0 L151.4,214.0 L151.8,214.0 L152.3,214.0 L152.8,214.0 L153.2,214.0 L153.7,214.0 L154.1,214.0 L154.6,214.0 L155.1,214.0 L155.5,214.0 L156.0,214.0 L156.5,214.0 L156.9,214.0 L157.4,214.0 L157.9,214.0 L158.3,214.0 L158.8,214.0 L159.2,214.0 L159.7,214.0 L160.2,214.0 L160.6,214.0 L161.1,213.9 L161.6,213.9 L162.0,213.9 L162.5,213.9 L163.0,213.9 L163.4,213.9 L163.9,213.9 L164.4,213.9 L164.8,213.9 L165.3,213.9 L165.8,213.9 L166.2,213.8 L166.7,213.8 L167.1,213.8 L167.6,213.8 L168.1,213.8 L168.5,213.8 L169.0,213.7 L169.5,213.7 L169.9,213.7 L170.4,213.7 L170.9,213.6 L171.3,213.6 L171.8,213.6 L172.2,213.5 L172.7,213.5 L173.2,213.4 L173.6,213.4 L174.1,213.3 L174.6,213.2 L175.0,213.2 L175.5,213.1 L176.0,213.0 L176.4,213.0 L176.9,212.9 L177.4,212.8 L177.8,212.7 L178.3,212.6 L178.8,212.4 L179.2,212.3 L179.7,212.2 L180.1,212.0 L180.6,211.9 L181.1,211.7 L181.5,211.5 L182.0,211.4 L182.5,211.2 L182.9,210.9 L183.4,210.7 L183.9,210.5 L184.3,210.2 L184.8,209.9 L185.2,209.7 L185.7,209.3 L186.2,209.0 L186.6,208.7 L187.1,208.3 L187.6,207.9 L188.0,207.5 L188.5,207.1 L189.0,206.6 L189.4,206.1 L189.9,205.6 L190.4,205.1 L190.8,204.5 L191.3,203.9 L191.8,203.3 L192.2,202.6 L192.7,202.0 L193.1,201.2 L193.6,200.5 L194.1,199.7 L194.5,198.9 L195.0,198.0 L195.5,197.1 L195.9,196.1 L196.4,195.2 L196.9,194.1 L197.3,193.1 L197.8,192.0 L198.2,190.8 L198.7,189.6 L199.2,188.4 L199.6,187.1 L200.1,185.7 L200.6,184.3 L201.0,182.9 L201.5,181.4 L202.0,179.9 L202.4,178.3 L202.9,176.7 L203.4,175.0 L203.8,173.3 L204.3,171.5 L204.8,169.7 L205.2,167.8 L205.7,165.8 L206.1,163.9 L206.6,161.9 L207.1,159.8 L207.5,157.7 L208.0,155.5 L208.5,153.3 L208.9,151.1 L209.4,148.8 L209.9,146.5 L210.3,144.1 L210.8,141.7 L211.3,139.3 L211.7,136.8 L212.2,134.3 L212.6,131.8 L213.1,129.3 L213.6,126.7 L214.0,124.1 L214.5,121.5 L215.0,118.9 L215.4,116.3 L215.9,113.7 L216.4,111.0 L216.8,108.4 L217.3,105.7 L217.7,103.1 L218.2,100.5 L218.7,97.9 L219.1,95.3 L219.6,92.7 L220.1,90.1 L220.5,87.6 L221.0,85.1 L221.5,82.7 L221.9,80.3 L222.4,77.9 L222.9,75.6 L223.3,73.3 L223.8,71.1 L224.2,68.9 L224.7,66.8 L225.2,64.8 L225.6,62.8 L226.1,60.9 L226.6,59.1 L227.0,57.4 L227.5,55.7 L228.0,54.2 L228.4,52.7 L228.9,51.3 L229.4,50.0 L229.8,48.8 L230.3,47.7 L230.8,46.7 L231.2,45.9 L231.7,45.1 L232.1,44.4 L232.6,43.8 L233.1,43.3 L233.5,43.0 L234.0,42.7 L234.5,42.6 L234.9,42.6 L235.4,42.7 L235.9,42.8 L236.3,43.2 L236.8,43.6 L237.2,44.1 L237.7,44.7 L238.2,45.4 L238.6,46.3 L239.1,47.2 L239.6,48.3 L240.0,49.4 L240.5,50.7 L241.0,52.0 L241.4,53.4 L241.9,55.0 L242.4,56.6 L242.8,58.3 L243.3,60.0 L243.8,61.9 L244.2,63.8 L244.7,65.8 L245.1,67.9 L245.6,70.0 L246.1,72.2 L246.5,74.4 L247.0,76.7 L247.5,79.1 L247.9,81.5 L248.4,83.9 L248.9,86.4 L249.3,88.9 L249.8,91.4 L250.2,94.0 L250.7,96.6 L251.2,99.2 L251.6,101.8 L252.1,104.4 L252.6,107.1 L253.0,109.7 L253.5,112.3 L254.0,115.0 L254.4,117.6 L254.9,120.2 L255.4,122.8 L255.8,125.4 L256.3,128.0 L256.8,130.6 L257.2,133.1 L257.7,135.6 L258.1,138.1 L258.6,140.5 L259.1,142.9 L259.5,145.3 L260.0,147.6 L260.5,149.9 L260.9,152.2 L261.4,154.4 L261.9,156.6 L262.3,158.7 L262.8,160.8 L263.2,162.9 L263.7,164.9 L264.2,166.8 L264.6,168.7 L265.1,170.6 L265.6,172.4 L266.0,174.1 L266.5,175.8 L267.0,177.5 L267.4,179.1 L267.9,180.7 L268.4,182.2 L268.8,183.6 L269.3,185.0 L269.8,186.4 L270.2,187.7 L270.7,189.0 L271.1,190.2 L271.6,191.4 L272.1,192.5 L272.5,193.6 L273.0,194.7 L273.5,195.7 L273.9,196.6 L274.4,197.5 L274.9,198.4 L275.3,199.3 L275.8,200.1 L276.2,200.9 L276.7,201.6 L277.2,202.3 L277.6,203.0 L278.1,203.6 L278.6,204.2 L279.0,204.8 L279.5,205.4 L280.0,205.9 L280.4,206.4 L280.9,206.8 L281.4,207.3 L281.8,207.7 L282.3,208.1 L282.8,208.5 L283.2,208.8 L283.7,209.2 L284.1,209.5 L284.6,209.8 L285.1,210.1 L285.5,210.3 L286.0,210.6 L286.5,210.8 L286.9,211.1 L287.4,211.3 L287.9,211.5 L288.3,211.6 L288.8,211.8 L289.2,212.0 L289.7,212.1 L290.2,212.3 L290.6,212.4 L291.1,212.5 L291.6,212.6 L292.0,212.7 L292.5,212.8 L293.0,212.9 L293.4,213.0 L293.9,213.1 L294.4,213.1 L294.8,213.2 L295.3,213.3 L295.8,213.3 L296.2,213.4 L296.7,213.4 L297.1,213.5 L297.6,213.5 L298.1,213.6 L298.5,213.6 L299.0,213.6 L299.5,213.7 L299.9,213.7 L300.4,213.7 L300.9,213.7 L301.3,213.8 L301.8,213.8 L302.2,213.8 L302.7,213.8 L303.2,213.8 L303.6,213.9 L304.1,213.9 L304.6,213.9 L305.0,213.9 L305.5,213.9 L306.0,213.9 L306.4,213.9 L306.9,213.9 L307.4,213.9 L307.8,213.9 L308.3,213.9 L308.8,213.9 L309.2,214.0 L309.7,214.0 L310.1,214.0 L310.6,214.0 L311.1,214.0 L311.5,214.0 L312.0,214.0 L312.5,214.0 L312.9,214.0 L313.4,214.0 L313.9,214.0 L314.3,214.0 L314.8,214.0 L315.2,214.0 L315.7,214.0 L316.2,214.0 L316.6,214.0 L317.1,214.0 L317.6,214.0 L318.0,214.0 L318.5,214.0 L319.0,214.0 L319.4,214.0 L319.9,214.0 L320.4,214.0 L320.8,214.0 L321.3,214.0 L321.8,214.0 L322.2,214.0 L322.7,214.0 L323.1,214.0 L323.6,214.0 L324.1,214.0 L324.5,214.0 L325.0,214.0 L325.5,214.0 L325.9,214.0 L326.4,214.0 L326.9,213.9 L327.3,213.9 L327.8,213.9 L328.2,213.9 L328.7,213.9 L329.2,213.9 L329.6,213.9 L330.1,213.9 L330.6,213.9 L331.0,213.9 L331.5,213.9 L332.0,213.9 L332.4,213.9 L332.9,213.9 L333.4,213.9 L333.8,213.9 L334.3,213.9 L334.7,213.9 L335.2,213.8 L335.7,213.8 L336.1,213.8 L336.6,213.8 L337.1,213.8 L337.5,213.8 L338.0,213.8 L338.5,213.8 L338.9,213.8 L339.4,213.8 L339.9,213.7 L340.3,213.7 L340.8,213.7 L341.2,213.7 L341.7,213.7 L342.2,213.7 L342.6,213.6 L343.1,213.6 L343.6,213.6 L344.0,213.6 L344.5,213.6 L345.0,213.5 L345.4,213.5 L345.9,213.5 L346.4,213.5 L346.8,213.4 L347.3,213.4 L347.8,213.4 L348.2,213.3 L348.7,213.3 L349.1,213.3 L349.6,213.2 L350.1,213.2 L350.5,213.2 L351.0,213.1 L351.5,213.1 L351.9,213.0 L352.4,213.0 L352.9,212.9 L353.3,212.9 L353.8,212.9 L354.3,212.8 L354.7,212.7 L355.2,212.7 L355.6,212.6 L356.1,212.6 L356.6,212.5 L357.0,212.4 L357.5,212.4 L358.0,212.3 L358.4,212.2 L358.9,212.2 L359.4,212.1 L359.8,212.0 L360.3,211.9 L360.8,211.8 L361.2,211.8 L361.7,211.7 L362.1,211.6 L362.6,211.5 L363.1,211.4 L363.5,211.3 L364.0,211.2 L364.5,211.1 L364.9,211.0 L365.4,210.9 L365.9,210.7 L366.3,210.6 L366.8,210.5 L367.2,210.4 L367.7,210.2 L368.2,210.1 L368.6,210.0 L369.1,209.8 L369.6,209.7 L370.0,209.5 L370.5,209.4 L371.0,209.2 L371.4,209.1 L371.9,208.9 L372.4,208.8 L372.8,208.6 L373.3,208.4 L373.8,208.3 L374.2,208.1 L374.7,207.9 L375.1,207.7 L375.6,207.5 L376.1,207.3 L376.5,207.1 L377.0,206.9 L377.5,206.7 L377.9,206.5 L378.4,206.3 L378.9,206.1 L379.3,205.9 L379.8,205.7 L380.2,205.5 L380.7,205.3 L381.2,205.0 L381.6,204.8 L382.1,204.6 L382.6,204.3 L383.0,204.1 L383.5,203.9 L384.0,203.6 L384.4,203.4 L384.9,203.1 L385.4,202.9 L385.8,202.6 L386.3,202.4 L386.8,202.1 L387.2,201.9 L387.7,201.6 L388.1,201.3 L388.6,201.1 L389.1,200.8 L389.5,200.6 L390.0,200.3 L390.5,200.0 L390.9,199.8 L391.4,199.5 L391.9,199.2 L392.3,199.0 L392.8,198.7 L393.2,198.5 L393.7,198.2 L394.2,197.9 L394.6,197.7 L395.1,197.4 L395.6,197.1 L396.0,196.9 L396.5,196.6 L397.0,196.4 L397.4,196.1 L397.9,195.9 L398.4,195.6 L398.8,195.4 L399.3,195.1 L399.7,194.9 L400.2,194.7 L400.7,194.4 L401.1,194.2 L401.6,194.0 L402.1,193.8 L402.5,193.6 L403.0,193.3 L403.5,193.1 L403.9,192.9 L404.4,192.7 L404.9,192.5 L405.3,192.4 L405.8,192.2 L406.2,192.0 L406.7,191.8 L407.2,191.7 L407.6,191.5 L408.1,191.3 L408.6,191.2 L409.0,191.1 L409.5,190.9 L410.0,190.8 L410.4,190.7 L410.9,190.6 L411.4,190.5 L411.8,190.4 L412.3,190.3 L412.8,190.2 L413.2,190.1 L413.7,190.0 L414.1,190.0 L414.6,189.9 L415.1,189.9 L415.5,189.8 L416.0,189.8 L416.5,189.8 L416.9,189.8 L417.4,189.8 L417.9,189.8 L418.3,189.8 L418.8,189.8 L419.3,189.8 L419.7,189.8 L420.2,189.9 L420.6,189.9 L421.1,190.0 L421.6,190.0 L422.0,190.1 L422.5,190.2 L423.0,190.3 L423.4,190.4 L423.9,190.5 L424.4,190.6 L424.8,190.7 L425.3,190.8 L425.8,190.9 L426.2,191.1 L426.7,191.2 L427.1,191.3 L427.6,191.5 L428.1,191.7 L428.5,191.8 L429.0,192.0 L429.5,192.2 L429.9,192.4 L430.4,192.5 L430.9,192.7 L431.3,192.9 L431.8,193.1 L432.2,193.3 L432.7,193.6 L433.2,193.8 L433.6,194.0 L434.1,194.2 L434.6,194.4 L435.0,194.7 L435.5,194.9 L436.0,195.1 L436.4,195.4 L436.9,195.6 L437.4,195.9 L437.8,196.1 L438.3,196.4 L438.8,196.6 L439.2,196.9 L439.7,197.1 L440.1,197.4 L440.6,197.7 L441.1,197.9 L441.5,198.2 L442.0,198.5 L442.5,198.7 L442.9,199.0 L443.4,199.2 L443.9,199.5 L444.3,199.8 L444.8,200.0 L445.2,200.3 L445.7,200.6 L446.2,200.8 L446.6,201.1 L447.1,201.3 L447.6,201.6 L448.0,201.9 L448.5,202.1 L449.0,202.4 L449.4,202.6 L449.9,202.9 L450.4,203.1 L450.8,203.4 L451.3,203.6 L451.8,203.9 L452.2,204.1 L452.7,204.3 L453.1,204.6 L453.6,204.8 L454.1,205.0 L454.5,205.3 L455.0,205.5 L455.5,205.7 L455.9,205.9 L456.4,206.1 L456.9,206.3 L457.3,206.5 L457.8,206.7 L458.2,206.9 L458.7,207.1 L459.2,207.3 L459.6,207.5 L460.1,207.7 L460.6,207.9 L461.0,208.1 L461.5,208.3 L462.0,208.4 L462.4,208.6 L462.9,208.8 L463.4,208.9 L463.8,209.1 L464.3,209.2 L464.8,209.4 L465.2,209.5 L465.7,209.7 L466.1,209.8 L466.6,210.0 L467.1,210.1 L467.5,210.2 L468.0,210.4 L468.5,210.5 L468.9,210.6 L469.4,210.7 L469.9,210.8 L470.3,211.0 L470.8,211.1 L471.2,211.2 L471.7,211.3 L472.2,211.4 L472.6,211.5 L473.1,211.6 L473.6,211.7 L474.0,211.8 L474.5,211.8 L475.0,211.9 L475.4,212.0 L475.9,212.1 L476.4,212.2 L476.8,212.2 L477.3,212.3 L477.8,212.4 L478.2,212.4 L478.7,212.5 L479.1,212.6 L479.6,212.6 L480.1,212.7 L480.5,212.7 L481.0,212.8 L481.5,212.8 L481.9,212.9 L482.4,212.9 L482.9,213.0 L483.3,213.0 L483.8,213.1 L484.2,213.1 L484.7,213.2 L485.2,213.2 L485.6,213.2 L486.1,213.3 L486.6,213.3 L487.0,213.3 L487.5,213.4 L488.0,213.4 L488.4,213.4 L488.9,213.4 L489.4,213.5 L489.8,213.5 L490.3,213.5 L490.8,213.5 L491.2,213.6 L491.7,213.6 L492.1,213.6 L492.6,213.6 L493.1,213.6 L493.5,213.7 L494.0,213.7 L494.5,213.7 L494.9,213.7 L495.4,213.7 L495.9,213.7 L496.3,213.7 L496.8,213.8 L497.2,213.8 L497.7,213.8 L498.2,213.8 L498.6,213.8 L499.1,213.8 L499.6,213.8 L500.0,213.8 L500.5,213.8 L501.0,213.8 L501.4,213.8 L501.9,213.8 L502.4,213.9 L502.8,213.9 L503.3,213.9 L503.8,213.9 L504.2,213.9 L504.7,213.9 L505.1,213.9 L505.6,213.9 L506.1,213.9 L506.5,213.9 L507.0,213.9 L507.5,213.9 L507.9,213.9 L508.4,213.9 L508.9,213.9 L509.3,213.9 L509.8,213.9 L510.2,213.9 L510.7,213.9 L511.2,213.9 L511.6,213.9 L512.1,213.9 L512.6,213.9 L513.0,213.9 L513.5,213.9 L514.0,213.9 L514.4,213.9 L514.9,213.9 L515.4,213.9 L515.8,213.9 L516.3,213.9 L516.8,213.9 L517.2,213.9 L517.7,213.9 L518.1,213.9 L518.6,213.8 L519.1,213.8 L519.5,213.8 L520.0,213.8 L520.5,213.8 L520.9,213.8 L521.4,213.8 L521.9,213.8 L522.3,213.8 L522.8,213.8 L523.2,213.8 L523.7,213.8 L524.2,213.8 L524.6,213.8 L525.1,213.8 L525.6,213.8 L526.0,213.7 L526.5,213.7 L527.0,213.7 L527.4,213.7 L527.9,213.7 L528.4,213.7 L528.8,213.7 L529.3,213.7 L529.8,213.7 L530.2,213.7 L530.7,213.6 L531.1,213.6 L531.6,213.6 L532.1,213.6 L532.5,213.6 L533.0,213.6 L533.5,213.6 L533.9,213.6 L534.4,213.5 L534.9,213.5 L535.3,213.5 L535.8,213.5 L536.2,213.5 L536.7,213.5 L537.2,213.5 L537.6,213.4 L538.1,213.4 L538.6,213.4 L539.0,213.4 L539.5,213.4 L540.0,213.4 L540.4,213.3 L540.9,213.3 L541.4,213.3 L541.8,213.3 L542.3,213.3 L542.8,213.2 L543.2,213.2 L543.7,213.2 L544.1,213.2 L544.6,213.2 L545.1,213.1 L545.5,213.1 L546.0,213.1 L546.5,213.1 L546.9,213.1 L547.4,213.0 L547.9,213.0 L548.3,213.0 L548.8,213.0 L549.2,212.9 L549.7,212.9 L550.2,212.9 L550.6,212.9 L551.1,212.8 L551.6,212.8 L552.0,212.8 L552.5,212.7 L553.0,212.7 L553.4,212.7 L553.9,212.7 L554.4,212.6 L554.8,212.6 L555.3,212.6 L555.8,212.5 L556.2,212.5 L556.7,212.5 L557.1,212.4 L557.6,212.4 L558.1,212.4 L558.5,212.4 L559.0,212.3 L559.5,212.3 L559.9,212.3 L560.4,212.2 L560.9,212.2 L561.3,212.2 L561.8,212.1 L562.2,212.1 L562.7,212.1 L563.2,212.0 L563.6,212.0 L564.1,212.0 L564.6,211.9 L565.0,211.9 L565.5,211.8 L566.0,211.8 L566.4,211.8 L566.9,211.7 L567.4,211.7 L567.8,211.7 L568.3,211.6 L568.8,211.6 L569.2,211.6 L569.7,211.5 L570.1,211.5 L570.6,211.5 L571.1,211.4 L571.5,211.4 L572.0,211.4 L572.5,211.3 L572.9,211.3 L573.4,211.3 L573.9,211.2 L574.3,211.2 L574.8,211.1 L575.3,211.1 L575.7,211.1 L576.2,211.0 L576.6,211.0 L577.1,211.0 L577.6,210.9 L578.0,210.9 L578.5,210.9 L579.0,210.9 L579.4,210.8 L579.9,210.8 L580.4,210.8 L580.8,210.7 L581.3,210.7 L581.8,210.7 L582.2,210.6 L582.7,210.6 L583.1,210.6 L583.6,210.6 L584.1,210.5 L584.5,210.5 L585.0,210.5 L585.5,210.5 L585.9,210.4 L586.4,210.4 L586.9,210.4 L587.3,210.4 L587.8,210.3 L588.2,210.3 L588.7,210.3 L589.2,210.3 L589.6,210.3 L590.1,210.2 L590.6,210.2 L591.0,210.2 L591.5,210.2 L592.0,210.2 L592.4,210.2 L592.9,210.2 L593.4,210.1 L593.8,210.1 L594.3,210.1 L594.8,210.1 L595.2,210.1 L595.7,210.1 L596.1,210.1 L596.6,210.1 L597.1,210.1 L597.5,210.1 L598.0,210.1 L598.5,210.0 L598.9,210.0 L599.4,210.0 L599.9,210.0 L600.3,210.0 L600.8,210.0 L601.2,210.0 L601.7,210.0 L602.2,210.0 L602.6,210.1 L603.1,210.1 L603.6,210.1 L604.0,210.1 L604.5,210.1 L605.0,210.1 L605.4,210.1 L605.9,210.1 L606.4,210.1 L606.8,210.1 L607.3,210.1 L607.8,210.1 L608.2,210.2 L608.7,210.2 L609.1,210.2 L609.6,210.2 L610.1,210.2 L610.5,210.2 L611.0,210.3 L611.5,210.3 L611.9,210.3 L612.4,210.3 L612.9,210.3 L613.3,210.4 L613.8,210.4 L614.2,210.4 L614.7,210.4 L615.2,210.4 L615.6,210.5 L616.1,210.5 L616.6,210.5 L617.0,210.5 L617.5,210.6 L618.0,210.6 L618.4,210.6 L618.9,210.7 L619.4,210.7 L619.8,210.7 L620.3,210.7 L620.8,210.8 L621.2,210.8 L621.7,210.8 L622.1,210.9 L622.6,210.9 L623.1,210.9 L623.5,211.0 L624.0,211.0 L624.5,211.0 L624.9,211.1 L625.4,211.1 L625.9,211.1 L626.3,211.2 L626.8,211.2 L627.2,211.2 L627.7,211.3 L628.2,211.3 L628.6,211.3 L629.1,211.4 L629.6,211.4 L630.0,211.4 L630.5,211.5 L631.0,211.5 L631.4,211.5 L631.9,211.6 L632.4,211.6 L632.8,211.7 L633.3,211.7 L633.7,211.7 L634.2,211.8 L634.7,211.8 L635.1,211.8 L635.6,211.9 L636.1,211.9 L636.5,211.9 L637.0,212.0 L637.5,212.0 L637.9,212.0 L638.4,212.1 L638.9,212.1 L639.3,212.1 L639.8,212.2 L640.3,212.2 L640.7,212.2 L641.2,212.3 L641.6,212.3 L642.1,212.3 L642.6,212.4 L643.0,212.4 L643.5,212.4 L644.0,212.5 L644.4,212.5 L644.9,212.5 L645.4,212.6 L645.8,212.6 L646.3,212.6 L646.8,212.6 L647.2,212.7 L647.7,212.7 L648.1,212.7 L648.6,212.8 L649.1,212.8 L649.5,212.8 L650.0,212.8 L650.5,212.9 L650.9,212.9 L651.4,212.9 L651.9,212.9 L652.3,213.0 L652.8,213.0 L653.2,213.0 L653.7,213.0 L654.2,213.1 L654.6,213.1 L655.1,213.1 L655.6,213.1 L656.0,213.2 L656.5,213.2 L657.0,213.2 L657.4,213.2 L657.9,213.2 L658.4,213.3 L658.8,213.3 L659.3,213.3 L659.8,213.3 L660.2,213.3 L660.7,213.4 L661.1,213.4 L661.6,213.4 L662.1,213.4 L662.5,213.4 L663.0,213.4 L663.5,213.5 L663.9,213.5 L664.4,213.5 L664.9,213.5 L665.3,213.5 L665.8,213.5 L666.2,213.5 L666.7,213.6 L667.2,213.6 L667.6,213.6 L668.1,213.6 L668.6,213.6 L669.0,213.6 L669.5,213.6 L670.0,213.6 L670.4,213.7 L670.9,213.7 L671.4,213.7 L671.8,213.7 L672.3,213.7 L672.8,213.7 L673.2,213.7 L673.7,213.7 L674.1,213.7 L674.6,213.7 L675.1,213.8 L675.5,213.8 L676.0,213.8 L676.5,213.8 L676.9,213.8 L677.4,213.8 L677.9,213.8 L678.3,213.8 L678.8,213.8 L679.2,213.8 L679.7,213.8 L680.2,213.8 L680.6,213.8 L681.1,213.8 L681.6,213.9 L682.0,213.9 L682.5,213.9 L683.0,213.9 L683.4,213.9 L683.9,213.9 L684.4,213.9 L684.8,213.9 L685.3,213.9 L685.8,213.9 L686.2,213.9 L686.7,213.9 L687.1,213.9 L687.6,213.9 L688.1,213.9 L688.5,213.9 L689.0,213.9 L689.5,213.9 L689.9,213.9 L690.4,213.9 L690.9,213.9 L691.3,213.9 L691.8,213.9 L692.2,213.9 L692.7,213.9 L693.2,213.9 L693.6,213.9 L694.1,214.0 L694.6,214.0 L695.0,214.0 L695.5,214.0 L696.0,214.0 L696.4,214.0 L696.9,214.0 L697.4,214.0 L697.8,214.0 L698.3,214.0 L698.7,214.0 L699.2,214.0 L699.7,214.0 L700.1,214.0 L700.6,214.0 L701.1,214.0 L701.5,214.0 L702.0,214.0 L702.0,214.0 Z" fill="#0969da" fill-opacity="0.13"/>
<path d="M52.0,214.0 L52.5,214.0 L52.9,214.0 L53.4,214.0 L53.9,214.0 L54.3,214.0 L54.8,214.0 L55.2,214.0 L55.7,214.0 L56.2,214.0 L56.6,214.0 L57.1,214.0 L57.6,214.0 L58.0,214.0 L58.5,214.0 L59.0,214.0 L59.4,214.0 L59.9,214.0 L60.4,214.0 L60.8,214.0 L61.3,214.0 L61.8,214.0 L62.2,214.0 L62.7,214.0 L63.1,214.0 L63.6,214.0 L64.1,214.0 L64.5,214.0 L65.0,214.0 L65.5,214.0 L65.9,214.0 L66.4,214.0 L66.9,214.0 L67.3,214.0 L67.8,214.0 L68.2,214.0 L68.7,214.0 L69.2,214.0 L69.6,214.0 L70.1,214.0 L70.6,214.0 L71.0,214.0 L71.5,214.0 L72.0,214.0 L72.4,214.0 L72.9,214.0 L73.4,214.0 L73.8,214.0 L74.3,214.0 L74.8,214.0 L75.2,214.0 L75.7,214.0 L76.1,214.0 L76.6,214.0 L77.1,214.0 L77.5,214.0 L78.0,214.0 L78.5,214.0 L78.9,214.0 L79.4,214.0 L79.9,214.0 L80.3,214.0 L80.8,214.0 L81.2,214.0 L81.7,214.0 L82.2,214.0 L82.6,214.0 L83.1,214.0 L83.6,214.0 L84.0,214.0 L84.5,214.0 L85.0,214.0 L85.4,214.0 L85.9,214.0 L86.4,214.0 L86.8,214.0 L87.3,214.0 L87.8,214.0 L88.2,214.0 L88.7,214.0 L89.1,214.0 L89.6,214.0 L90.1,214.0 L90.5,214.0 L91.0,214.0 L91.5,214.0 L91.9,214.0 L92.4,214.0 L92.9,214.0 L93.3,214.0 L93.8,214.0 L94.2,214.0 L94.7,214.0 L95.2,214.0 L95.6,214.0 L96.1,214.0 L96.6,214.0 L97.0,214.0 L97.5,214.0 L98.0,214.0 L98.4,214.0 L98.9,214.0 L99.4,214.0 L99.8,214.0 L100.3,214.0 L100.8,214.0 L101.2,214.0 L101.7,214.0 L102.1,214.0 L102.6,214.0 L103.1,214.0 L103.5,214.0 L104.0,214.0 L104.5,214.0 L104.9,214.0 L105.4,214.0 L105.9,214.0 L106.3,214.0 L106.8,214.0 L107.2,214.0 L107.7,214.0 L108.2,214.0 L108.6,214.0 L109.1,214.0 L109.6,214.0 L110.0,214.0 L110.5,214.0 L111.0,214.0 L111.4,214.0 L111.9,214.0 L112.4,214.0 L112.8,214.0 L113.3,214.0 L113.8,214.0 L114.2,214.0 L114.7,214.0 L115.1,214.0 L115.6,214.0 L116.1,214.0 L116.5,214.0 L117.0,214.0 L117.5,214.0 L117.9,214.0 L118.4,214.0 L118.9,214.0 L119.3,214.0 L119.8,214.0 L120.2,214.0 L120.7,214.0 L121.2,214.0 L121.6,214.0 L122.1,214.0 L122.6,214.0 L123.0,214.0 L123.5,214.0 L124.0,214.0 L124.4,214.0 L124.9,214.0 L125.4,214.0 L125.8,214.0 L126.3,214.0 L126.7,214.0 L127.2,214.0 L127.7,214.0 L128.1,214.0 L128.6,214.0 L129.1,214.0 L129.5,214.0 L130.0,214.0 L130.5,214.0 L130.9,214.0 L131.4,214.0 L131.9,214.0 L132.3,214.0 L132.8,214.0 L133.2,214.0 L133.7,214.0 L134.2,214.0 L134.6,214.0 L135.1,214.0 L135.6,214.0 L136.0,214.0 L136.5,214.0 L137.0,214.0 L137.4,214.0 L137.9,214.0 L138.4,214.0 L138.8,214.0 L139.3,214.0 L139.8,214.0 L140.2,214.0 L140.7,214.0 L141.1,214.0 L141.6,214.0 L142.1,214.0 L142.5,214.0 L143.0,214.0 L143.5,214.0 L143.9,214.0 L144.4,214.0 L144.9,214.0 L145.3,214.0 L145.8,214.0 L146.2,214.0 L146.7,214.0 L147.2,214.0 L147.6,214.0 L148.1,214.0 L148.6,214.0 L149.0,214.0 L149.5,214.0 L150.0,214.0 L150.4,214.0 L150.9,214.0 L151.4,214.0 L151.8,214.0 L152.3,214.0 L152.8,214.0 L153.2,214.0 L153.7,214.0 L154.1,214.0 L154.6,214.0 L155.1,214.0 L155.5,214.0 L156.0,214.0 L156.5,214.0 L156.9,214.0 L157.4,214.0 L157.9,214.0 L158.3,214.0 L158.8,214.0 L159.2,214.0 L159.7,214.0 L160.2,214.0 L160.6,214.0 L161.1,213.9 L161.6,213.9 L162.0,213.9 L162.5,213.9 L163.0,213.9 L163.4,213.9 L163.9,213.9 L164.4,213.9 L164.8,213.9 L165.3,213.9 L165.8,213.9 L166.2,213.8 L166.7,213.8 L167.1,213.8 L167.6,213.8 L168.1,213.8 L168.5,213.8 L169.0,213.7 L169.5,213.7 L169.9,213.7 L170.4,213.7 L170.9,213.6 L171.3,213.6 L171.8,213.6 L172.2,213.5 L172.7,213.5 L173.2,213.4 L173.6,213.4 L174.1,213.3 L174.6,213.2 L175.0,213.2 L175.5,213.1 L176.0,213.0 L176.4,213.0 L176.9,212.9 L177.4,212.8 L177.8,212.7 L178.3,212.6 L178.8,212.4 L179.2,212.3 L179.7,212.2 L180.1,212.0 L180.6,211.9 L181.1,211.7 L181.5,211.5 L182.0,211.4 L182.5,211.2 L182.9,210.9 L183.4,210.7 L183.9,210.5 L184.3,210.2 L184.8,209.9 L185.2,209.7 L185.7,209.3 L186.2,209.0 L186.6,208.7 L187.1,208.3 L187.6,207.9 L188.0,207.5 L188.5,207.1 L189.0,206.6 L189.4,206.1 L189.9,205.6 L190.4,205.1 L190.8,204.5 L191.3,203.9 L191.8,203.3 L192.2,202.6 L192.7,202.0 L193.1,201.2 L193.6,200.5 L194.1,199.7 L194.5,198.9 L195.0,198.0 L195.5,197.1 L195.9,196.1 L196.4,195.2 L196.9,194.1 L197.3,193.1 L197.8,192.0 L198.2,190.8 L198.7,189.6 L199.2,188.4 L199.6,187.1 L200.1,185.7 L200.6,184.3 L201.0,182.9 L201.5,181.4 L202.0,179.9 L202.4,178.3 L202.9,176.7 L203.4,175.0 L203.8,173.3 L204.3,171.5 L204.8,169.7 L205.2,167.8 L205.7,165.8 L206.1,163.9 L206.6,161.9 L207.1,159.8 L207.5,157.7 L208.0,155.5 L208.5,153.3 L208.9,151.1 L209.4,148.8 L209.9,146.5 L210.3,144.1 L210.8,141.7 L211.3,139.3 L211.7,136.8 L212.2,134.3 L212.6,131.8 L213.1,129.3 L213.6,126.7 L214.0,124.1 L214.5,121.5 L215.0,118.9 L215.4,116.3 L215.9,113.7 L216.4,111.0 L216.8,108.4 L217.3,105.7 L217.7,103.1 L218.2,100.5 L218.7,97.9 L219.1,95.3 L219.6,92.7 L220.1,90.1 L220.5,87.6 L221.0,85.1 L221.5,82.7 L221.9,80.3 L222.4,77.9 L222.9,75.6 L223.3,73.3 L223.8,71.1 L224.2,68.9 L224.7,66.8 L225.2,64.8 L225.6,62.8 L226.1,60.9 L226.6,59.1 L227.0,57.4 L227.5,55.7 L228.0,54.2 L228.4,52.7 L228.9,51.3 L229.4,50.0 L229.8,48.8 L230.3,47.7 L230.8,46.7 L231.2,45.9 L231.7,45.1 L232.1,44.4 L232.6,43.8 L233.1,43.3 L233.5,43.0 L234.0,42.7 L234.5,42.6 L234.9,42.6 L235.4,42.7 L235.9,42.8 L236.3,43.2 L236.8,43.6 L237.2,44.1 L237.7,44.7 L238.2,45.4 L238.6,46.3 L239.1,47.2 L239.6,48.3 L240.0,49.4 L240.5,50.7 L241.0,52.0 L241.4,53.4 L241.9,55.0 L242.4,56.6 L242.8,58.3 L243.3,60.0 L243.8,61.9 L244.2,63.8 L244.7,65.8 L245.1,67.9 L245.6,70.0 L246.1,72.2 L246.5,74.4 L247.0,76.7 L247.5,79.1 L247.9,81.5 L248.4,83.9 L248.9,86.4 L249.3,88.9 L249.8,91.4 L250.2,94.0 L250.7,96.6 L251.2,99.2 L251.6,101.8 L252.1,104.4 L252.6,107.1 L253.0,109.7 L253.5,112.3 L254.0,115.0 L254.4,117.6 L254.9,120.2 L255.4,122.8 L255.8,125.4 L256.3,128.0 L256.8,130.6 L257.2,133.1 L257.7,135.6 L258.1,138.1 L258.6,140.5 L259.1,142.9 L259.5,145.3 L260.0,147.6 L260.5,149.9 L260.9,152.2 L261.4,154.4 L261.9,156.6 L262.3,158.7 L262.8,160.8 L263.2,162.9 L263.7,164.9 L264.2,166.8 L264.6,168.7 L265.1,170.6 L265.6,172.4 L266.0,174.1 L266.5,175.8 L267.0,177.5 L267.4,179.1 L267.9,180.7 L268.4,182.2 L268.8,183.6 L269.3,185.0 L269.8,186.4 L270.2,187.7 L270.7,189.0 L271.1,190.2 L271.6,191.4 L272.1,192.5 L272.5,193.6 L273.0,194.7 L273.5,195.7 L273.9,196.6 L274.4,197.5 L274.9,198.4 L275.3,199.3 L275.8,200.1 L276.2,200.9 L276.7,201.6 L277.2,202.3 L277.6,203.0 L278.1,203.6 L278.6,204.2 L279.0,204.8 L279.5,205.4 L280.0,205.9 L280.4,206.4 L280.9,206.8 L281.4,207.3 L281.8,207.7 L282.3,208.1 L282.8,208.5 L283.2,208.8 L283.7,209.2 L284.1,209.5 L284.6,209.8 L285.1,210.1 L285.5,210.3 L286.0,210.6 L286.5,210.8 L286.9,211.1 L287.4,211.3 L287.9,211.5 L288.3,211.6 L288.8,211.8 L289.2,212.0 L289.7,212.1 L290.2,212.3 L290.6,212.4 L291.1,212.5 L291.6,212.6 L292.0,212.7 L292.5,212.8 L293.0,212.9 L293.4,213.0 L293.9,213.1 L294.4,213.1 L294.8,213.2 L295.3,213.3 L295.8,213.3 L296.2,213.4 L296.7,213.4 L297.1,213.5 L297.6,213.5 L298.1,213.6 L298.5,213.6 L299.0,213.6 L299.5,213.7 L299.9,213.7 L300.4,213.7 L300.9,213.7 L301.3,213.8 L301.8,213.8 L302.2,213.8 L302.7,213.8 L303.2,213.8 L303.6,213.9 L304.1,213.9 L304.6,213.9 L305.0,213.9 L305.5,213.9 L306.0,213.9 L306.4,213.9 L306.9,213.9 L307.4,213.9 L307.8,213.9 L308.3,213.9 L308.8,213.9 L309.2,214.0 L309.7,214.0 L310.1,214.0 L310.6,214.0 L311.1,214.0 L311.5,214.0 L312.0,214.0 L312.5,214.0 L312.9,214.0 L313.4,214.0 L313.9,214.0 L314.3,214.0 L314.8,214.0 L315.2,214.0 L315.7,214.0 L316.2,214.0 L316.6,214.0 L317.1,214.0 L317.6,214.0 L318.0,214.0 L318.5,214.0 L319.0,214.0 L319.4,214.0 L319.9,214.0 L320.4,214.0 L320.8,214.0 L321.3,214.0 L321.8,214.0 L322.2,214.0 L322.7,214.0 L323.1,214.0 L323.6,214.0 L324.1,214.0 L324.5,214.0 L325.0,214.0 L325.5,214.0 L325.9,214.0 L326.4,214.0 L326.9,213.9 L327.3,213.9 L327.8,213.9 L328.2,213.9 L328.7,213.9 L329.2,213.9 L329.6,213.9 L330.1,213.9 L330.6,213.9 L331.0,213.9 L331.5,213.9 L332.0,213.9 L332.4,213.9 L332.9,213.9 L333.4,213.9 L333.8,213.9 L334.3,213.9 L334.7,213.9 L335.2,213.8 L335.7,213.8 L336.1,213.8 L336.6,213.8 L337.1,213.8 L337.5,213.8 L338.0,213.8 L338.5,213.8 L338.9,213.8 L339.4,213.8 L339.9,213.7 L340.3,213.7 L340.8,213.7 L341.2,213.7 L341.7,213.7 L342.2,213.7 L342.6,213.6 L343.1,213.6 L343.6,213.6 L344.0,213.6 L344.5,213.6 L345.0,213.5 L345.4,213.5 L345.9,213.5 L346.4,213.5 L346.8,213.4 L347.3,213.4 L347.8,213.4 L348.2,213.3 L348.7,213.3 L349.1,213.3 L349.6,213.2 L350.1,213.2 L350.5,213.2 L351.0,213.1 L351.5,213.1 L351.9,213.0 L352.4,213.0 L352.9,212.9 L353.3,212.9 L353.8,212.9 L354.3,212.8 L354.7,212.7 L355.2,212.7 L355.6,212.6 L356.1,212.6 L356.6,212.5 L357.0,212.4 L357.5,212.4 L358.0,212.3 L358.4,212.2 L358.9,212.2 L359.4,212.1 L359.8,212.0 L360.3,211.9 L360.8,211.8 L361.2,211.8 L361.7,211.7 L362.1,211.6 L362.6,211.5 L363.1,211.4 L363.5,211.3 L364.0,211.2 L364.5,211.1 L364.9,211.0 L365.4,210.9 L365.9,210.7 L366.3,210.6 L366.8,210.5 L367.2,210.4 L367.7,210.2 L368.2,210.1 L368.6,210.0 L369.1,209.8 L369.6,209.7 L370.0,209.5 L370.5,209.4 L371.0,209.2 L371.4,209.1 L371.9,208.9 L372.4,208.8 L372.8,208.6 L373.3,208.4 L373.8,208.3 L374.2,208.1 L374.7,207.9 L375.1,207.7 L375.6,207.5 L376.1,207.3 L376.5,207.1 L377.0,206.9 L377.5,206.7 L377.9,206.5 L378.4,206.3 L378.9,206.1 L379.3,205.9 L379.8,205.7 L380.2,205.5 L380.7,205.3 L381.2,205.0 L381.6,204.8 L382.1,204.6 L382.6,204.3 L383.0,204.1 L383.5,203.9 L384.0,203.6 L384.4,203.4 L384.9,203.1 L385.4,202.9 L385.8,202.6 L386.3,202.4 L386.8,202.1 L387.2,201.9 L387.7,201.6 L388.1,201.3 L388.6,201.1 L389.1,200.8 L389.5,200.6 L390.0,200.3 L390.5,200.0 L390.9,199.8 L391.4,199.5 L391.9,199.2 L392.3,199.0 L392.8,198.7 L393.2,198.5 L393.7,198.2 L394.2,197.9 L394.6,197.7 L395.1,197.4 L395.6,197.1 L396.0,196.9 L396.5,196.6 L397.0,196.4 L397.4,196.1 L397.9,195.9 L398.4,195.6 L398.8,195.4 L399.3,195.1 L399.7,194.9 L400.2,194.7 L400.7,194.4 L401.1,194.2 L401.6,194.0 L402.1,193.8 L402.5,193.6 L403.0,193.3 L403.5,193.1 L403.9,192.9 L404.4,192.7 L404.9,192.5 L405.3,192.4 L405.8,192.2 L406.2,192.0 L406.7,191.8 L407.2,191.7 L407.6,191.5 L408.1,191.3 L408.6,191.2 L409.0,191.1 L409.5,190.9 L410.0,190.8 L410.4,190.7 L410.9,190.6 L411.4,190.5 L411.8,190.4 L412.3,190.3 L412.8,190.2 L413.2,190.1 L413.7,190.0 L414.1,190.0 L414.6,189.9 L415.1,189.9 L415.5,189.8 L416.0,189.8 L416.5,189.8 L416.9,189.8 L417.4,189.8 L417.9,189.8 L418.3,189.8 L418.8,189.8 L419.3,189.8 L419.7,189.8 L420.2,189.9 L420.6,189.9 L421.1,190.0 L421.6,190.0 L422.0,190.1 L422.5,190.2 L423.0,190.3 L423.4,190.4 L423.9,190.5 L424.4,190.6 L424.8,190.7 L425.3,190.8 L425.8,190.9 L426.2,191.1 L426.7,191.2 L427.1,191.3 L427.6,191.5 L428.1,191.7 L428.5,191.8 L429.0,192.0 L429.5,192.2 L429.9,192.4 L430.4,192.5 L430.9,192.7 L431.3,192.9 L431.8,193.1 L432.2,193.3 L432.7,193.6 L433.2,193.8 L433.6,194.0 L434.1,194.2 L434.6,194.4 L435.0,194.7 L435.5,194.9 L436.0,195.1 L436.4,195.4 L436.9,195.6 L437.4,195.9 L437.8,196.1 L438.3,196.4 L438.8,196.6 L439.2,196.9 L439.7,197.1 L440.1,197.4 L440.6,197.7 L441.1,197.9 L441.5,198.2 L442.0,198.5 L442.5,198.7 L442.9,199.0 L443.4,199.2 L443.9,199.5 L444.3,199.8 L444.8,200.0 L445.2,200.3 L445.7,200.6 L446.2,200.8 L446.6,201.1 L447.1,201.3 L447.6,201.6 L448.0,201.9 L448.5,202.1 L449.0,202.4 L449.4,202.6 L449.9,202.9 L450.4,203.1 L450.8,203.4 L451.3,203.6 L451.8,203.9 L452.2,204.1 L452.7,204.3 L453.1,204.6 L453.6,204.8 L454.1,205.0 L454.5,205.3 L455.0,205.5 L455.5,205.7 L455.9,205.9 L456.4,206.1 L456.9,206.3 L457.3,206.5 L457.8,206.7 L458.2,206.9 L458.7,207.1 L459.2,207.3 L459.6,207.5 L460.1,207.7 L460.6,207.9 L461.0,208.1 L461.5,208.3 L462.0,208.4 L462.4,208.6 L462.9,208.8 L463.4,208.9 L463.8,209.1 L464.3,209.2 L464.8,209.4 L465.2,209.5 L465.7,209.7 L466.1,209.8 L466.6,210.0 L467.1,210.1 L467.5,210.2 L468.0,210.4 L468.5,210.5 L468.9,210.6 L469.4,210.7 L469.9,210.8 L470.3,211.0 L470.8,211.1 L471.2,211.2 L471.7,211.3 L472.2,211.4 L472.6,211.5 L473.1,211.6 L473.6,211.7 L474.0,211.8 L474.5,211.8 L475.0,211.9 L475.4,212.0 L475.9,212.1 L476.4,212.2 L476.8,212.2 L477.3,212.3 L477.8,212.4 L478.2,212.4 L478.7,212.5 L479.1,212.6 L479.6,212.6 L480.1,212.7 L480.5,212.7 L481.0,212.8 L481.5,212.8 L481.9,212.9 L482.4,212.9 L482.9,213.0 L483.3,213.0 L483.8,213.1 L484.2,213.1 L484.7,213.2 L485.2,213.2 L485.6,213.2 L486.1,213.3 L486.6,213.3 L487.0,213.3 L487.5,213.4 L488.0,213.4 L488.4,213.4 L488.9,213.4 L489.4,213.5 L489.8,213.5 L490.3,213.5 L490.8,213.5 L491.2,213.6 L491.7,213.6 L492.1,213.6 L492.6,213.6 L493.1,213.6 L493.5,213.7 L494.0,213.7 L494.5,213.7 L494.9,213.7 L495.4,213.7 L495.9,213.7 L496.3,213.7 L496.8,213.8 L497.2,213.8 L497.7,213.8 L498.2,213.8 L498.6,213.8 L499.1,213.8 L499.6,213.8 L500.0,213.8 L500.5,213.8 L501.0,213.8 L501.4,213.8 L501.9,213.8 L502.4,213.9 L502.8,213.9 L503.3,213.9 L503.8,213.9 L504.2,213.9 L504.7,213.9 L505.1,213.9 L505.6,213.9 L506.1,213.9 L506.5,213.9 L507.0,213.9 L507.5,213.9 L507.9,213.9 L508.4,213.9 L508.9,213.9 L509.3,213.9 L509.8,213.9 L510.2,213.9 L510.7,213.9 L511.2,213.9 L511.6,213.9 L512.1,213.9 L512.6,213.9 L513.0,213.9 L513.5,213.9 L514.0,213.9 L514.4,213.9 L514.9,213.9 L515.4,213.9 L515.8,213.9 L516.3,213.9 L516.8,213.9 L517.2,213.9 L517.7,213.9 L518.1,213.9 L518.6,213.8 L519.1,213.8 L519.5,213.8 L520.0,213.8 L520.5,213.8 L520.9,213.8 L521.4,213.8 L521.9,213.8 L522.3,213.8 L522.8,213.8 L523.2,213.8 L523.7,213.8 L524.2,213.8 L524.6,213.8 L525.1,213.8 L525.6,213.8 L526.0,213.7 L526.5,213.7 L527.0,213.7 L527.4,213.7 L527.9,213.7 L528.4,213.7 L528.8,213.7 L529.3,213.7 L529.8,213.7 L530.2,213.7 L530.7,213.6 L531.1,213.6 L531.6,213.6 L532.1,213.6 L532.5,213.6 L533.0,213.6 L533.5,213.6 L533.9,213.6 L534.4,213.5 L534.9,213.5 L535.3,213.5 L535.8,213.5 L536.2,213.5 L536.7,213.5 L537.2,213.5 L537.6,213.4 L538.1,213.4 L538.6,213.4 L539.0,213.4 L539.5,213.4 L540.0,213.4 L540.4,213.3 L540.9,213.3 L541.4,213.3 L541.8,213.3 L542.3,213.3 L542.8,213.2 L543.2,213.2 L543.7,213.2 L544.1,213.2 L544.6,213.2 L545.1,213.1 L545.5,213.1 L546.0,213.1 L546.5,213.1 L546.9,213.1 L547.4,213.0 L547.9,213.0 L548.3,213.0 L548.8,213.0 L549.2,212.9 L549.7,212.9 L550.2,212.9 L550.6,212.9 L551.1,212.8 L551.6,212.8 L552.0,212.8 L552.5,212.7 L553.0,212.7 L553.4,212.7 L553.9,212.7 L554.4,212.6 L554.8,212.6 L555.3,212.6 L555.8,212.5 L556.2,212.5 L556.7,212.5 L557.1,212.4 L557.6,212.4 L558.1,212.4 L558.5,212.4 L559.0,212.3 L559.5,212.3 L559.9,212.3 L560.4,212.2 L560.9,212.2 L561.3,212.2 L561.8,212.1 L562.2,212.1 L562.7,212.1 L563.2,212.0 L563.6,212.0 L564.1,212.0 L564.6,211.9 L565.0,211.9 L565.5,211.8 L566.0,211.8 L566.4,211.8 L566.9,211.7 L567.4,211.7 L567.8,211.7 L568.3,211.6 L568.8,211.6 L569.2,211.6 L569.7,211.5 L570.1,211.5 L570.6,211.5 L571.1,211.4 L571.5,211.4 L572.0,211.4 L572.5,211.3 L572.9,211.3 L573.4,211.3 L573.9,211.2 L574.3,211.2 L574.8,211.1 L575.3,211.1 L575.7,211.1 L576.2,211.0 L576.6,211.0 L577.1,211.0 L577.6,210.9 L578.0,210.9 L578.5,210.9 L579.0,210.9 L579.4,210.8 L579.9,210.8 L580.4,210.8 L580.8,210.7 L581.3,210.7 L581.8,210.7 L582.2,210.6 L582.7,210.6 L583.1,210.6 L583.6,210.6 L584.1,210.5 L584.5,210.5 L585.0,210.5 L585.5,210.5 L585.9,210.4 L586.4,210.4 L586.9,210.4 L587.3,210.4 L587.8,210.3 L588.2,210.3 L588.7,210.3 L589.2,210.3 L589.6,210.3 L590.1,210.2 L590.6,210.2 L591.0,210.2 L591.5,210.2 L592.0,210.2 L592.4,210.2 L592.9,210.2 L593.4,210.1 L593.8,210.1 L594.3,210.1 L594.8,210.1 L595.2,210.1 L595.7,210.1 L596.1,210.1 L596.6,210.1 L597.1,210.1 L597.5,210.1 L598.0,210.1 L598.5,210.0 L598.9,210.0 L599.4,210.0 L599.9,210.0 L600.3,210.0 L600.8,210.0 L601.2,210.0 L601.7,210.0 L602.2,210.0 L602.6,210.1 L603.1,210.1 L603.6,210.1 L604.0,210.1 L604.5,210.1 L605.0,210.1 L605.4,210.1 L605.9,210.1 L606.4,210.1 L606.8,210.1 L607.3,210.1 L607.8,210.1 L608.2,210.2 L608.7,210.2 L609.1,210.2 L609.6,210.2 L610.1,210.2 L610.5,210.2 L611.0,210.3 L611.5,210.3 L611.9,210.3 L612.4,210.3 L612.9,210.3 L613.3,210.4 L613.8,210.4 L614.2,210.4 L614.7,210.4 L615.2,210.4 L615.6,210.5 L616.1,210.5 L616.6,210.5 L617.0,210.5 L617.5,210.6 L618.0,210.6 L618.4,210.6 L618.9,210.7 L619.4,210.7 L619.8,210.7 L620.3,210.7 L620.8,210.8 L621.2,210.8 L621.7,210.8 L622.1,210.9 L622.6,210.9 L623.1,210.9 L623.5,211.0 L624.0,211.0 L624.5,211.0 L624.9,211.1 L625.4,211.1 L625.9,211.1 L626.3,211.2 L626.8,211.2 L627.2,211.2 L627.7,211.3 L628.2,211.3 L628.6,211.3 L629.1,211.4 L629.6,211.4 L630.0,211.4 L630.5,211.5 L631.0,211.5 L631.4,211.5 L631.9,211.6 L632.4,211.6 L632.8,211.7 L633.3,211.7 L633.7,211.7 L634.2,211.8 L634.7,211.8 L635.1,211.8 L635.6,211.9 L636.1,211.9 L636.5,211.9 L637.0,212.0 L637.5,212.0 L637.9,212.0 L638.4,212.1 L638.9,212.1 L639.3,212.1 L639.8,212.2 L640.3,212.2 L640.7,212.2 L641.2,212.3 L641.6,212.3 L642.1,212.3 L642.6,212.4 L643.0,212.4 L643.5,212.4 L644.0,212.5 L644.4,212.5 L644.9,212.5 L645.4,212.6 L645.8,212.6 L646.3,212.6 L646.8,212.6 L647.2,212.7 L647.7,212.7 L648.1,212.7 L648.6,212.8 L649.1,212.8 L649.5,212.8 L650.0,212.8 L650.5,212.9 L650.9,212.9 L651.4,212.9 L651.9,212.9 L652.3,213.0 L652.8,213.0 L653.2,213.0 L653.7,213.0 L654.2,213.1 L654.6,213.1 L655.1,213.1 L655.6,213.1 L656.0,213.2 L656.5,213.2 L657.0,213.2 L657.4,213.2 L657.9,213.2 L658.4,213.3 L658.8,213.3 L659.3,213.3 L659.8,213.3 L660.2,213.3 L660.7,213.4 L661.1,213.4 L661.6,213.4 L662.1,213.4 L662.5,213.4 L663.0,213.4 L663.5,213.5 L663.9,213.5 L664.4,213.5 L664.9,213.5 L665.3,213.5 L665.8,213.5 L666.2,213.5 L666.7,213.6 L667.2,213.6 L667.6,213.6 L668.1,213.6 L668.6,213.6 L669.0,213.6 L669.5,213.6 L670.0,213.6 L670.4,213.7 L670.9,213.7 L671.4,213.7 L671.8,213.7 L672.3,213.7 L672.8,213.7 L673.2,213.7 L673.7,213.7 L674.1,213.7 L674.6,213.7 L675.1,213.8 L675.5,213.8 L676.0,213.8 L676.5,213.8 L676.9,213.8 L677.4,213.8 L677.9,213.8 L678.3,213.8 L678.8,213.8 L679.2,213.8 L679.7,213.8 L680.2,213.8 L680.6,213.8 L681.1,213.8 L681.6,213.9 L682.0,213.9 L682.5,213.9 L683.0,213.9 L683.4,213.9 L683.9,213.9 L684.4,213.9 L684.8,213.9 L685.3,213.9 L685.8,213.9 L686.2,213.9 L686.7,213.9 L687.1,213.9 L687.6,213.9 L688.1,213.9 L688.5,213.9 L689.0,213.9 L689.5,213.9 L689.9,213.9 L690.4,213.9 L690.9,213.9 L691.3,213.9 L691.8,213.9 L692.2,213.9 L692.7,213.9 L693.2,213.9 L693.6,213.9 L694.1,214.0 L694.6,214.0 L695.0,214.0 L695.5,214.0 L696.0,214.0 L696.4,214.0 L696.9,214.0 L697.4,214.0 L697.8,214.0 L698.3,214.0 L698.7,214.0 L699.2,214.0 L699.7,214.0 L700.1,214.0 L700.6,214.0 L701.1,214.0 L701.5,214.0 L702.0,214.0" fill="none" stroke="#0969da" stroke-width="2"/>
<line x1="52" y1="214.0" x2="702" y2="214.0" stroke="#57606a" stroke-width="1"/>
<line x1="52" y1="22" x2="52" y2="214.0" stroke="#57606a" stroke-width="1"/>
<line x1="234.8" y1="214.0" x2="234.8" y2="26" stroke="#8c959f" stroke-width="1" stroke-dasharray="3 3" stroke-opacity="0.7"/>
<text x="234.8" y="16" text-anchor="middle" fill="#8c959f">&#956;</text>
<line x1="417.6" y1="214.0" x2="417.6" y2="26" stroke="#8c959f" stroke-width="1" stroke-dasharray="3 3" stroke-opacity="0.7"/>
<text x="417.6" y="16" text-anchor="middle" fill="#8c959f">2&#956;</text>
<line x1="600.4" y1="214.0" x2="600.4" y2="26" stroke="#8c959f" stroke-width="1" stroke-dasharray="3 3" stroke-opacity="0.7"/>
<text x="600.4" y="16" text-anchor="middle" fill="#8c959f">3&#956;</text>
<line x1="52.0" y1="214.0" x2="52.0" y2="218.0" stroke="#57606a"/>
<text x="52.0" y="231.0" text-anchor="middle">0s</text>
<line x1="234.8" y1="214.0" x2="234.8" y2="218.0" stroke="#57606a"/>
<text x="234.8" y="231.0" text-anchor="middle">90s</text>
<line x1="417.6" y1="214.0" x2="417.6" y2="218.0" stroke="#57606a"/>
<text x="417.6" y="231.0" text-anchor="middle">180s</text>
<line x1="600.4" y1="214.0" x2="600.4" y2="218.0" stroke="#57606a"/>
<text x="600.4" y="231.0" text-anchor="middle">270s</text>
<text x="377" y="252" text-anchor="middle">elapsed since this runner&#8217;s last crossing</text>
<text transform="translate(14,118) rotate(-90)" text-anchor="middle">likelihood</text>
<text x="60.1" y="190.0" fill="#8c959f">just crossed:</text>
<text x="60.1" y="203.0" fill="#8c959f">ruled out</text>
<text x="247.0" y="34.6" fill="#0969da">due now</text>
<text x="429.8" y="181.8" fill="#8c959f">missed one (&#215;&#961;)</text>
</svg>
